<?xml version="1.0" standalone="no"?>
<!DOCTYPE svg PUBLIC "-//W3C//DTD SVG 20010904//EN"
 "http://www.w3.org/TR/2001/REC-SVG-20010904/DTD/svg10.dtd">
<svg version="1.0" xmlns="http://www.w3.org/2000/svg"
 width="40.000000pt" height="30.000000pt" viewBox="0 0 418.000000 337.000000"
 preserveAspectRatio="xMidYMid meet">

<g transform="translate(0.000000,337.000000) scale(0.100000,-0.100000)"
fill="#ffffff" stroke="none">
<path d="M3549 3082 c-108 -228 -292 -552 -306 -538 -2 2 9 30 26 62 56 114
140 300 147 329 3 17 -25 -22 -64 -86 -109 -180 -222 -343 -326 -473 -53 -65
-93 -122 -90 -127 3 -5 16 -9 30 -9 13 0 24 -4 24 -10 0 -5 -14 -10 -30 -10
-27 0 -29 -2 -18 -19 15 -24 62 -32 88 -14 28 19 170 199 238 301 82 121 182
299 237 423 52 116 129 318 123 325 -2 2 -38 -67 -79 -154z"/>
<path d="M3605 2511 c3 -2 -1 -11 -8 -19 -9 -11 -4 -11 16 2 32 22 32 22 7 22
-10 0 -17 -2 -15 -5z"/>
<path d="M2797 2490 c-3 -11 -1 -20 4 -20 5 0 9 9 9 20 0 11 -2 20 -4 20 -2 0
-6 -9 -9 -20z"/>
<path d="M3546 2464 c-5 -14 -4 -15 9 -4 17 14 19 20 6 20 -5 0 -12 -7 -15
-16z"/>
<path d="M2758 2445 c-10 -13 -18 -27 -18 -31 0 -4 -11 -22 -25 -40 -14 -18
-25 -37 -25 -42 0 -6 -4 -12 -9 -14 -4 -1 -24 -33 -44 -69 l-36 -65 105 2 c57
2 108 6 113 9 5 3 12 1 16 -5 3 -5 10 -10 16 -10 5 0 4 9 -3 20 -11 17 -10 22
2 30 8 5 11 10 6 10 -5 0 -18 -7 -28 -17 -12 -10 -18 -12 -18 -4 0 7 -4 10 -9
7 -19 -12 -5 29 19 53 22 22 23 26 8 29 -10 2 -18 10 -18 18 0 8 4 12 10 9 5
-3 8 0 6 7 -3 7 -7 25 -10 40 -3 14 -14 29 -24 31 -14 4 -14 6 6 12 12 4 22
11 22 16 0 15 -22 10 -43 -8 -19 -18 -20 -17 -8 5 17 32 10 35 -11 7z"/>
<path d="M3500 2456 c0 -2 7 -6 15 -10 8 -3 15 -1 15 4 0 6 -7 10 -15 10 -8 0
-15 -2 -15 -4z"/>
<path d="M3483 2433 c-13 -2 -23 -8 -23 -13 0 -12 -63 -8 -73 5 -5 6 -7 3 -3
-7 4 -13 0 -18 -15 -18 -17 0 -18 -3 -8 -22 11 -20 10 -21 -3 -11 -12 11 -18
10 -30 -5 -32 -37 -28 -42 16 -20 25 12 42 26 39 31 -3 6 -1 7 5 3 10 -6 122
49 122 60 0 2 -1 3 -2 3 -2 -1 -13 -4 -25 -6z"/>
<path d="M2890 2195 c7 -8 19 -15 27 -15 13 0 13 3 3 15 -7 8 -19 15 -27 15
-13 0 -13 -3 -3 -15z"/>
<path d="M3090 2050 c-8 -5 -79 -10 -157 -10 -87 0 -143 -4 -143 -10 0 -19
-48 -22 -74 -4 -15 9 -30 13 -34 9 -4 -4 -1 -10 6 -12 17 -6 15 -23 -5 -45
-23 -25 -8 -35 18 -12 15 13 20 14 17 5 -2 -8 -13 -20 -24 -28 -18 -12 -24
-11 -45 5 -46 36 -68 -1 -27 -45 12 -13 17 -23 12 -23 -6 0 -22 12 -36 28 -24
25 -25 29 -12 47 8 11 19 20 24 20 4 0 18 12 30 28 l21 27 -43 0 c-117 0 -578
-72 -586 -92 -2 -4 -11 -8 -20 -9 -14 0 -13 -2 3 -9 16 -7 17 -9 3 -9 -9 -1
-19 2 -22 7 -2 4 -26 5 -53 3 -28 -2 -41 -6 -31 -10 10 -3 -18 -6 -61 -6 -50
-1 -85 -6 -95 -14 -9 -7 -22 -11 -31 -8 -8 4 -35 0 -60 -8 -32 -9 -43 -10 -36
-2 7 9 -3 12 -36 13 -41 1 -43 0 -22 -11 20 -11 17 -13 -28 -10 -52 2 -52 2
-48 -26 3 -22 -2 -32 -18 -40 -18 -9 -20 -9 -9 2 15 16 16 33 2 24 -6 -4 -18
-1 -27 7 -13 10 -17 10 -20 0 -3 -6 -8 -10 -13 -7 -12 7 -71 -64 -106 -127
-26 -48 -29 -62 -29 -148 0 -82 4 -103 26 -151 68 -145 256 -255 478 -280 230
-26 494 59 731 237 52 39 161 127 241 195 305 259 449 338 763 421 l50 13
-170 29 c-93 16 -197 29 -232 28 -36 0 -60 3 -57 9 8 11 4 11 -15 -1z m-647
-87 c-13 -2 -33 -2 -45 0 -13 2 -3 4 22 4 25 0 35 -2 23 -4z m82 -10 c-12 -32
-10 -38 13 -37 16 0 21 -4 17 -16 -3 -9 3 -25 15 -35 11 -10 20 -23 20 -28 0
-6 -12 1 -27 15 -16 14 -34 23 -42 20 -10 -3 -12 0 -8 10 3 9 1 20 -4 25 -12
12 -1 63 13 63 6 0 7 -8 3 -17z m-220 -3 c-22 -5 -44 -4 -49 1 -6 5 10 9 40 8
l49 -1 -40 -8z m-135 -5 c0 -2 -8 -9 -18 -14 -14 -8 -19 -6 -19 5 0 7 9 14 19
14 10 0 18 -2 18 -5z m62 -2 c-6 -2 -10 -9 -7 -14 4 -5 -1 -6 -9 -3 -24 9 -19
24 7 23 12 0 16 -3 9 -6z m-132 -7 c0 -2 -11 -6 -25 -8 -14 -3 -25 -1 -25 3 0
5 11 9 25 9 14 0 25 -2 25 -4z m348 -112 c28 -8 28 -25 -3 -74 -33 -52 -64
-69 -82 -44 -26 36 -10 98 30 114 28 11 27 11 55 4z m17 -121 c-40 -35 -51
-27 -16 12 17 20 32 41 32 48 1 7 4 1 6 -13 4 -18 -2 -31 -22 -47z"/>
<path d="M2417 1813 c-15 -14 -7 -43 12 -43 23 0 34 23 18 39 -13 13 -21 14
-30 4z"/>
<path d="M2375 1766 c-16 -12 -18 -18 -9 -33 6 -10 18 -19 27 -21 21 -4 33 36
15 54 -12 12 -17 12 -33 0z"/>
<path d="M2745 2030 c4 -6 11 -8 16 -5 14 9 11 15 -7 15 -8 0 -12 -5 -9 -10z"/>
<path d="M2645 1999 c-4 -6 -4 -13 -1 -16 8 -8 36 5 36 17 0 13 -27 13 -35 -1z"/>
<path d="M795 1994 c-70 -15 -119 -32 -185 -63 -41 -19 -78 -35 -81 -34 -3 1
-6 -16 -7 -37 -3 -35 0 -39 25 -43 l28 -4 -28 -2 c-24 -1 -27 -4 -22 -21 9
-27 -7 -25 -35 5 -16 17 -27 22 -34 15 -6 -6 0 -19 17 -36 32 -32 28 -45 -4
-15 -12 11 -24 19 -26 17 -8 -8 64 -147 117 -225 253 -378 575 -628 943 -734
107 -31 119 -32 287 -32 172 0 177 1 270 33 162 56 283 143 383 274 55 73 135
208 122 208 -3 0 -31 -20 -62 -45 -207 -169 -484 -253 -743 -225 -137 15 -196
32 -304 88 -204 107 -316 300 -285 495 10 65 64 190 104 243 l25 32 -25 16
c-13 9 -31 16 -40 16 -8 0 -15 4 -15 9 0 5 -6 11 -14 14 -10 4 -12 -1 -9 -16
4 -17 2 -19 -5 -7 -9 11 -21 12 -70 4 -36 -6 -71 -6 -88 -1 -16 5 -93 10 -171
11 -78 0 -135 5 -127 9 7 4 55 17 106 28 51 11 94 22 97 25 5 5 -116 3 -144
-2z"/>
<path d="M485 1850 c-4 -6 -3 -16 3 -22 6 -6 12 -6 17 2 4 6 3 16 -3 22 -6 6
-12 6 -17 -2z"/>
<path d="M282 1720 c-70 -18 -138 -48 -84 -36 18 3 21 1 13 -8 -8 -10 1 -10
42 -3 29 5 67 9 84 10 24 0 30 4 23 12 -6 7 -8 20 -4 29 3 9 5 16 3 15 -2 0
-37 -9 -77 -19z"/>
<path d="M3125 1700 c-16 -12 -45 -27 -63 -35 -67 -29 -227 -167 -320 -275
-41 -49 -59 -76 -50 -78 8 -1 88 20 179 47 421 127 575 144 889 95 66 -10 46
1 -52 30 -99 28 -210 45 -318 47 l-75 2 2 43 c1 24 -3 44 -8 44 -6 0 -7 5 -4
10 3 6 1 10 -6 10 -8 0 -5 5 5 13 23 17 10 28 -58 51 -64 21 -85 20 -121 -4z"/>
<path d="M401 1624 c0 -11 3 -14 6 -6 3 7 2 16 -1 19 -3 4 -6 -2 -5 -13z"/>
<path d="M590 995 c-11 -14 -7 -22 26 -56 l39 -40 -95 1 c-148 2 -142 3 -138
-22 3 -21 10 -24 83 -31 188 -18 536 -71 740 -112 293 -59 685 -165 685 -185
0 -12 -20 -26 -154 -108 -60 -37 -111 -71 -113 -77 -1 -5 1 -16 5 -23 6 -9 58
11 203 78 145 68 200 89 219 85 106 -27 504 -206 673 -304 48 -28 89 -51 92
-51 3 0 5 38 5 85 l0 85 -132 66 c-390 196 -1004 385 -1403 432 -141 17 -487
61 -522 67 -17 3 -58 25 -90 48 -105 78 -108 80 -123 62z"/>
</g>
</svg>
